
<svg xmlns="http://www.w3.org/2000/svg" version="1.1" viewBox="0 0 144 88.04">
  <defs>
    <style>
      .cls-1 {
        fill:rgb(255, 255, 255,0);
      }
      .cls-2{
        fill:rgb(86,5, 5);
      }
    </style>
  </defs>
  <!-- Generator: Adobe Illustrator 28.7.1, SVG Export Plug-In . SVG Version: 1.2.0 Build 142)  -->
  <g>
    <g id="Layer_1">
      <g>
        <path class="cls-1" d="M132.04,42.28c-.52-1.18-.82-2.38-1.07-3.44-.23-.93-.45-1.81-.77-2.46-1.16-2.32-7.32-7.76-14.03-7.76-3.72,0-6.98,1.72-9.7,5.12.12,4.14-2.31,8.65-2.83,9.41-2.73,3.99-7.6,5.82-11.73,6.81-.07,1.9-.14,3.7-.58,5.47-1.66,6.72-7.64,11.25-14.85,11.25h0c-1.37,0-2.73-.16-4.04-.5l-.25-.08-2.79-.98-.24-.14c-2.19-1.27-3.96-2.9-5.46-4.8-.63-.12-1.21-.41-1.66-.87-.36-.37-1.27-.92-2-1.37-.25-.16-.49-.3-.73-.45-1.85-1.17-3.75-2.38-5.7-3.61-5.09-3.24-10.34-6.56-15.3-9.63-4.72,5.51-16.61,19.38-23.26,27.14,2.7-.16,5.42-.3,8-.37,5.37-.16,10.63-.18,15.72-.21,4.64-.02,9.02-.04,13.46-.15.67-.01,1.36-.03,2.05-.03,5.38,0,10.43.5,13.87,1.36,1.84.47,3.09.9,4.75,1.97,4.95,3.18,11.24,5.08,16.81,5.08,3.21,0,6.24-.6,9.03-1.77,3.3-1.38,6.42-3.88,8.58-6.82,1.51-2.07,2.81-4.43,4.2-6.95,2.39-4.34,4.87-8.82,8.66-12.04,3.87-3.28,8.36-5.16,13.9-5.79-.7-.93-1.45-2.03-2.04-3.39Z"/>
        <path class="cls-2" d="M142.09,47.94c-.4-2.27-1.65-3.87-2.76-5.28-.73-.93-1.42-1.81-1.89-2.87-.31-.7-.51-1.54-.73-2.44-.29-1.17-.61-2.49-1.24-3.74-2.25-4.53-10.43-11.08-19.31-11.08-4.19,0-8.05,1.48-11.35,4.3-1.52-3.35-3.98-6.05-7.28-7.88-2.54-1.41-5.83-2.18-9.31-3-1.19-.28-2.4-.56-3.55-.87-5.01-1.33-9.92-2.59-15.12-3.93-5.11-1.31-10.4-2.67-15.75-4.09-.7-.19-5.62-1.62-6.74-1.95l-5.78-1.69,13.05,34.01c.69,1.95,1.32,3.99,1.94,5.97.66,2.11,1.32,4.23,2.06,6.3-.53-.34-1.07-.68-1.61-1.02-5.84-3.71-11.88-7.55-17.5-10.98l-2.11-1.3-1.63,1.9c-3.46,4.04-29.58,34.51-29.58,34.51l-4.66,5.43,7.03-.36c1.43-.07,2.98-.17,4.58-.26,3.47-.21,7.05-.42,10.35-.52,5.3-.15,10.53-.18,15.58-.2,4.46-.02,9.07-.04,13.58-.15.62-.02,1.26-.03,1.9-.03,4.85,0,9.51.44,12.45,1.18,1.39.35,2.02.57,3.02,1.22,2.81,1.81,10.38,6,19.95,6,3.99,0,7.77-.74,11.28-2.22,4.25-1.8,8.29-5,11.07-8.8,1.74-2.38,3.21-5.05,4.62-7.61,2.22-4.04,4.32-7.85,7.26-10.33,3.91-3.31,8.57-4.72,15.19-4.63l3.61.05-.65-3.65ZM111.52,63.5c-1.38,2.52-2.69,4.88-4.2,6.95-2.16,2.95-5.28,5.44-8.58,6.82-2.79,1.17-5.82,1.77-9.03,1.77-5.57,0-11.86-1.9-16.81-5.08-1.66-1.08-2.91-1.5-4.75-1.97-3.44-.87-8.49-1.36-13.87-1.36-.69,0-1.38.01-2.05.03-4.44.12-8.82.14-13.46.15-5.09.03-10.35.05-15.72.21-2.58.08-5.3.22-8,.37,6.65-7.76,18.55-21.64,23.26-27.14,4.96,3.07,10.21,6.4,15.3,9.63,1.95,1.23,3.85,2.45,5.7,3.61.24.15.48.3.73.45.73.45,1.64,1,2,1.37.45.46,1.03.76,1.66.87,1.49,1.9,3.27,3.53,5.46,4.8l.24.14,2.79.98.25.08c1.31.33,2.67.5,4.04.5h0c7.21,0,13.19-4.52,14.85-11.25.44-1.77.51-3.57.58-5.47,4.13-.99,9-2.82,11.73-6.81.52-.75,2.94-5.27,2.83-9.41,2.72-3.39,5.99-5.12,9.7-5.12,6.71,0,12.87,5.44,14.03,7.76.31.64.53,1.53.77,2.46.26,1.06.55,2.25,1.07,3.44.59,1.36,1.34,2.46,2.04,3.39-5.54.63-10.03,2.51-13.9,5.79-3.79,3.21-6.27,7.7-8.66,12.04ZM52.32,12.96c5.38,1.44,10.68,2.79,15.81,4.11,5.19,1.33,10.09,2.59,15.07,3.92,1.23.32,2.49.62,3.71.91,2.95.69,6,1.41,7.82,2.42,2.4,1.33,5.34,4.04,5.81,9.41.17,1.87-1.2,5.03-1.77,5.95-1.52,2.19-4.87,3.75-10.25,4.78l-2.26.43-.15,2.37c-.06.84-.09,1.63-.12,2.4-.06,1.66-.11,3.11-.4,4.28-1.21,4.91-5.66,6.65-9.1,6.65h0c-.85,0-1.7-.1-2.51-.29l-2.13-.74c-5.33-3.25-7.56-10.42-9.92-18-.64-2.05-1.3-4.16-2.03-6.23l-8.69-22.66c.52.15.92.26,1.11.31Z"/>
        <path class="cls-1" d="M61.93,41.54c2.36,7.58,4.59,14.75,9.92,18l2.13.74c.81.19,1.66.29,2.51.29h0c3.44,0,7.89-1.74,9.1-6.65.29-1.17.34-2.62.4-4.28.03-.77.06-1.56.12-2.4l.15-2.37,2.26-.43c5.38-1.02,8.73-2.59,10.25-4.78.57-.92,1.94-4.09,1.77-5.95-.47-5.37-3.42-8.08-5.81-9.41-1.82-1.02-4.87-1.73-7.82-2.42-1.22-.28-2.48-.58-3.71-.91-4.98-1.33-9.88-2.59-15.07-3.92-5.13-1.32-10.43-2.67-15.81-4.11-.19-.05-.59-.17-1.11-.31l8.69,22.66c.73,2.07,1.39,4.19,2.03,6.23Z"/>
      </g>
    </g>
  </g>
</svg>